custom-analysis
version=1
nRows=4
nColumns=98
inDegrees=no

This file contains tibia displacement and acting force.

Units are S.I. units (seconds, meters, Newtons, ...)
Angles are in degrees.

endheader
time	APT	SIT	knee_angle	aACL_R_force	pACL_R_force	aPCL_R_force	pPCL_R_force	aMCL_R_force	mMCL_R_force	pMCL_R_force	aLCL_R_force	mLCL_R_force	pLCL_R_force	aPCL_L_force	pPCL_L_force	aMCL_L_force	aLCL_L_force	aACL_R_length	pACL_R_length	aPCL_R_length	pPCL_R_length	aMCL_R_length	mMCL_R_length	pMCL_R_length	aLCL_R_length	mLCL_R_length	pLCL_R_length	aPCL_L_length	pPCL_L_length	aMCL_L_length	aLCL_L_length	aACL_R_strain	pACL_R_strain	aPCL_R_strain	pPCL_R_strain	aMCL_R_strain	mMCL_R_strain	pMCL_R_strain	aLCL_R_strain	mLCL_R_strain	pLCL_R_strain	aPCL_L_strain	pPCL_L_strain	aMCL_L_strain	aLCL_L_strain	femur_lat_meniscii_r.femur_lat_r.force.X	femur_lat_meniscii_r.femur_lat_r.force.Y	femur_lat_meniscii_r.femur_lat_r.force.Z	femur_lat_meniscii_r.femur_lat_r.torque.X	femur_lat_meniscii_r.femur_lat_r.torque.Y	femur_lat_meniscii_r.femur_lat_r.torque.Z	femur_lat_meniscii_r.meniscus_lat_r.force.X	femur_lat_meniscii_r.meniscus_lat_r.force.Y	femur_lat_meniscii_r.meniscus_lat_r.force.Z	femur_lat_meniscii_r.meniscus_lat_r.torque.X	femur_lat_meniscii_r.meniscus_lat_r.torque.Y	femur_lat_meniscii_r.meniscus_lat_r.torque.Z	femur_med_meniscii_r.femur_med_r.force.X	femur_med_meniscii_r.femur_med_r.force.Y	femur_med_meniscii_r.femur_med_r.force.Z	femur_med_meniscii_r.femur_med_r.torque.X	femur_med_meniscii_r.femur_med_r.torque.Y	femur_med_meniscii_r.femur_med_r.torque.Z	femur_med_meniscii_r.meniscus_med_r.force.X	femur_med_meniscii_r.meniscus_med_r.force.Y	femur_med_meniscii_r.meniscus_med_r.force.Z	femur_med_meniscii_r.meniscus_med_r.torque.X	femur_med_meniscii_r.meniscus_med_r.torque.Y	femur_med_meniscii_r.meniscus_med_r.torque.Z	femur_med_tibia_r.tibia_upper_r.force.X	femur_med_tibia_r.tibia_upper_r.force.Y	femur_med_tibia_r.tibia_upper_r.force.Z	femur_med_tibia_r.tibia_upper_r.torque.X	femur_med_tibia_r.tibia_upper_r.torque.Y	femur_med_tibia_r.tibia_upper_r.torque.Z	femur_med_tibia_r.femur_med_r.force.X	femur_med_tibia_r.femur_med_r.force.Y	femur_med_tibia_r.femur_med_r.force.Z	femur_med_tibia_r.femur_med_r.torque.X	femur_med_tibia_r.femur_med_r.torque.Y	femur_med_tibia_r.femur_med_r.torque.Z	femur_lat_tibia_r.tibia_upper_r.force.X	femur_lat_tibia_r.tibia_upper_r.force.Y	femur_lat_tibia_r.tibia_upper_r.force.Z	femur_lat_tibia_r.tibia_upper_r.torque.X	femur_lat_tibia_r.tibia_upper_r.torque.Y	femur_lat_tibia_r.tibia_upper_r.torque.Z	femur_lat_tibia_r.femur_lat_r.force.X	femur_lat_tibia_r.femur_lat_r.force.Y	femur_lat_tibia_r.femur_lat_r.force.Z	femur_lat_tibia_r.femur_lat_r.torque.X	femur_lat_tibia_r.femur_lat_r.torque.Y	femur_lat_tibia_r.femur_lat_r.torque.Z	femur_lat_meniscii_force_r	femur_med_meniscii_force_r	femur_lat_tibia_force_r	femur_med_tibia_force_r
      0.48379789	      0.00577251	      0.00091690	     89.99998384	     46.24856717	     19.89014591	    807.83139667	    393.23068093	     12.67883623	     -0.28886562	      0.00000000	      0.00000000	      0.00000000	      0.00000000	      0.00000000	      0.00000000	      0.00000001	      0.00000000	      0.03345061	      0.02636270	      0.03637259	      0.03276835	      0.06278306	      0.06056332	      0.05699574	      0.04870647	      0.04302150	      0.03776114	      0.01525851	      0.01651186	      0.06550154	      0.04489616	      0.07886044	      0.05203774	      0.16971338	      0.09637882	      0.04591367	      0.01287469	     -0.02949634	     -0.12988726	     -0.23610499	     -0.27857866	      0.00000079	     -0.32847694	      0.00000060	     -0.00000086	    206.78608789	      2.96240199	     37.19018328	    -15.10459684	      5.08908541	     84.02749808	   -206.78608789	     -2.96240199	    -37.19018328	      0.17644060	     -7.04101866	     -0.86798754	     68.24284649	    -45.03359215	    -13.77245684	      4.73626417	     -1.24599473	     27.49255655	    -68.24284649	     45.03359215	     13.77245684	      0.60183294	      1.34200724	     -1.35610479	   -598.18143163	     38.71320245	     95.02424150	      0.20429151	     10.42017856	     -2.92653141	    598.18143163	    -38.71320245	    -95.02424150	     37.80367912	    -10.30888006	    242.14289561	    -53.90962151	     -9.61848916	    -15.57120675	      0.34648198	     -2.00635756	      0.03996420	     53.90962151	      9.61848916	     15.57120675	     -6.56050765	      1.33050727	     21.89131167	    210.12465753	     82.91435995	     56.93175831	    606.91790521
      0.48665287	      0.00577181	      0.00091960	     89.99998384	     46.62588624	     20.36932778	    808.46809834	    395.54052073	     14.57842817	      1.70978012	      0.00000000	      0.00000000	      0.00000000	      0.00000000	      0.00000000	      0.00000000	      0.00000001	      0.00000000	      0.03344841	      0.02636050	      0.03637042	      0.03276618	      0.06277961	      0.06055988	      0.05699238	      0.04870505	      0.04302010	      0.03775982	      0.01525851	      0.01651186	      0.06550154	      0.04489616	      0.07878941	      0.05194992	      0.16964357	      0.09630611	      0.04585620	      0.01281714	     -0.02955354	     -0.12991276	     -0.23612980	     -0.27860394	      0.00000079	     -0.32847694	      0.00000060	     -0.00000086	    205.19019655	      3.30822156	     38.18237230	    -15.51557800	      5.06617186	     83.37435192	   -205.19019655	     -3.30822156	    -38.18237230	      0.19033600	     -7.03918403	     -0.84630586	     67.84357376	    -45.10335051	    -13.45038271	      4.60661765	     -1.23752479	     27.33455323	    -67.84357376	     45.10335051	     13.45038271	      0.60184413	      1.32625238	     -1.36066412	   -608.44535044	     38.83185507	     96.73804422	      0.20044448	     10.59662728	     -2.95978920	    608.44535044	    -38.83185507	    -96.73804422	     38.49550874	    -10.47986221	    246.29568466	    -55.14679517	     -9.89531504	    -16.06783919	      0.35677089	     -2.05811241	      0.04320043	     55.14679517	      9.89531504	     16.06783919	     -6.76912068	      1.36283443	     22.39295488	    208.73872340	     82.57103319	     58.28603378	    617.31021912
      0.48950784	      0.00577054	      0.00091676	     89.99998384	     46.43426983	     20.13883940	    808.50598055	    394.57554705	     13.57520727	      0.64684461	      0.00000000	      0.00000000	      0.00000000	      0.00000000	      0.00000000	      0.00000000	      0.00000001	      0.00000000	      0.03344907	      0.02636158	      0.03637387	      0.03276956	      0.06278161	      0.06056206	      0.05699472	      0.04870915	      0.04302429	      0.03776416	      0.01525851	      0.01651186	      0.06550154	      0.04489616	      0.07881073	      0.05199309	      0.16975470	      0.09641929	      0.04588943	      0.01285362	     -0.02951372	     -0.12983948	     -0.23605541	     -0.27852093	      0.00000079	     -0.32847694	      0.00000060	     -0.00000086	    205.83362582	      3.04969487	     37.53492270	    -15.24687448	      5.07195972	     83.63837443	   -205.83362582	     -3.04969487	    -37.53492270	      0.18066773	     -7.02865828	     -0.85948286	     67.92185075	    -45.00360495	    -13.64222371	      4.68478976	     -1.23985482	     27.36471322	    -67.92185075	     45.00360495	     13.64222371	      0.60128423	      1.33385194	     -1.35651056	   -598.16454777	     38.69005147	     94.75958509	      0.20485143	     10.41313012	     -2.92605628	    598.16454777	    -38.69005147	    -94.75958509	     37.69685666	    -10.30666698	    242.13498685	    -53.14547630	     -9.51144657	    -15.40325328	      0.34265128	     -1.97995591	      0.04055083	     53.14547630	      9.51144657	     15.40325328	     -6.48967369	      1.31242164	     21.58057325	    209.25021524	     82.61242361	     56.14418472	    606.85840627
      0.49236281	      0.00576996	      0.00091908	     89.99998384	     46.32520378	     20.03397394	    808.26022369	    394.53893641	     13.72495679	      0.83369773	      0.00000000	      0.00000000	      0.00000000	      0.00000000	      0.00000000	      0.00000000	      0.00000001	      0.00000000	      0.03344727	      0.02635979	      0.03637196	      0.03276765	      0.06277870	      0.06055916	      0.05699188	      0.04870779	      0.04302295	      0.03776288	      0.01525851	      0.01651186	      0.06550154	      0.04489616	      0.07875265	      0.05192161	      0.16969330	      0.09635553	      0.04584101	      0.01280508	     -0.02956211	     -0.12986373	     -0.23607915	     -0.27854537	      0.00000079	     -0.32847694	      0.00000060	     -0.00000086	    205.88746235	      3.12431284	     37.94076450	    -15.41352993	      5.07836584	     83.65948268	   -205.88746235	     -3.12431284	    -37.94076450	      0.18462261	     -7.04671847	     -0.85696482	     68.10594983	    -45.06697485	    -13.49983698	      4.62683487	     -1.24201005	     27.43839671	    -68.10594983	     45.06697485	     13.49983698	      0.60179741	      1.33126195	     -1.35818139	   -608.23460844	     38.95048533	     96.64339570	      0.20218050	     10.59470078	     -2.96403307	    608.23460844	    -38.95048533	    -96.64339570	     38.45518606	    -10.47743261	    246.21066559	    -54.26908457	     -9.71521951	    -15.76679586	      0.35019988	     -2.02325238	      0.04149851	     54.26908457	      9.71521951	     15.76679586	     -6.64239135	      1.34054461	     22.03680644	    209.37743454	     82.77498549	     57.34205160	    617.09515080
